<svg width="28" height="28" viewBox="0 0 28 28" fill="none" xmlns="http://www.w3.org/2000/svg">
<path d="M25.2909 0.666666H2.70918C1.64106 0.653813 0.764437 1.50879 0.75061 2.57691V25.4237C0.764517 26.4918 1.64114 27.3465 2.70918 27.3333H25.2909C26.3591 27.3466 27.2359 26.4916 27.2495 25.4234V2.57691C27.2358 1.50871 26.3591 0.653639 25.2909 0.666666ZM8.78405 22.9893H4.78137V10.948H8.78405V22.9893ZM7.11104 9.30607C7.00174 9.31396 6.89205 9.31332 6.78292 9.30404H6.75662C5.60657 9.37337 4.61804 8.49732 4.5487 7.34725C4.47937 6.19719 5.35542 5.20867 6.50549 5.13933C6.60673 5.13323 6.70837 5.13453 6.80945 5.14316C7.95902 5.05991 8.95837 5.92433 9.0417 7.07391C9.12496 8.22339 8.26053 9.22281 7.11104 9.30607ZM23.2156 22.9893H19.2136V16.5482C19.2136 14.9292 18.6341 13.8251 17.1861 13.8251C16.2611 13.8305 15.4392 14.4164 15.1324 15.2891C15.03 15.604 14.9853 15.9347 15.0006 16.2655V22.9893H10.9986C10.9986 22.9857 11.0511 12.0776 10.999 10.9482H15.001V12.6548C15.7386 11.3712 17.129 10.6044 18.6081 10.6656C21.2413 10.6656 23.2156 12.3866 23.2156 16.0851V22.9893H23.2156Z" fill="white"/>
</svg>
